<svg width="105" height="102" viewBox="0 0 105 102" fill="none" xmlns="http://www.w3.org/2000/svg">
<circle cx="57.6836" cy="46.5" r="46.5" fill="#ED4036"/>
<path fill-rule="evenodd" clip-rule="evenodd" d="M34.5 92.9C35.3284 92.9 36 92.221 36 91.3833C36 90.5457 35.3284 89.8667 34.5 89.8667H7.5C5.01584 89.8639 3.00271 87.8284 3 85.3167V18.5834C3.00271 16.0716 5.01584 14.0361 7.5 14.0334H47.0149C47.3466 14.036 47.6769 14.0756 48 14.1515V21.6167C48.0027 24.1285 50.0158 26.1639 52.5 26.1667H59.8794C59.9563 26.4931 59.9967 26.8272 60 27.1627V45.8834C60 46.721 60.6716 47.4 61.5 47.4C62.3284 47.4 63 46.721 63 45.8834V27.1627C63.0054 25.1506 62.2145 23.2199 60.8035 21.8011L52.3176 13.221C50.9144 11.7943 49.0049 10.9945 47.0149 11H7.5C3.35988 11.0049 0.00486021 14.3972 0 18.5834V85.3167C0.00486021 89.5028 3.35988 92.8951 7.5 92.9H34.5ZM87 76.2167C87 90.4564 75.5833 102 61.5 102C47.4167 102 36 90.4564 36 76.2167C36 61.9769 47.4167 50.4334 61.5 50.4334C75.5768 50.4492 86.9843 61.9835 87 76.2167ZM19.5 71.6667H10.5C9.67157 71.6667 9 70.9876 9 70.15C9 69.3124 9.67157 68.6333 10.5 68.6333H19.5C20.3284 68.6333 21 69.3124 21 70.15C21 70.9876 20.3284 71.6667 19.5 71.6667ZM33 70.1508C33 69.3131 32.3284 68.6341 31.5 68.6341H25.5C24.6716 68.6341 24 69.3131 24 70.1508C24 70.9884 24.6716 71.6674 25.5 71.6674H31.5C32.3284 71.6674 33 70.9884 33 70.1508ZM9 79.25C9 78.4124 9.67157 77.7333 10.5 77.7333H30C30.8284 77.7333 31.5 78.4124 31.5 79.25C31.5 80.0876 30.8284 80.7667 30 80.7667H10.5C9.67157 80.7667 9 80.0876 9 79.25ZM61.5 53.4667C73.9264 53.4667 84 63.6522 84 76.2167C83.9859 88.7753 73.9206 98.9525 61.5 98.9667C49.0736 98.9667 39 88.7812 39 76.2167C39 63.6522 49.0736 53.4667 61.5 53.4667ZM51 16.178V21.6167C51.0011 22.4539 51.672 23.1323 52.5 23.1334H57.8789L51 16.178ZM53.3972 77.6965H51.8849C51.1073 77.6965 50.4769 78.3335 50.4769 79.1192C50.4769 79.9049 51.1073 80.5418 51.8849 80.5418H54.1884C55.5783 83.9266 58.8183 86.1599 62.4443 86.2324C64.618 86.2219 66.7104 85.3958 68.3152 83.9143C68.6892 83.574 68.8549 83.0578 68.7498 82.5605C68.6448 82.0632 68.285 81.6603 67.806 81.504C67.3271 81.3476 66.8021 81.4614 66.4288 81.8026C65.345 82.8181 63.9224 83.3838 62.4443 83.3871C60.401 83.3467 58.5121 82.2796 57.408 80.5418H63.1483C63.9258 80.5418 64.5562 79.9049 64.5562 79.1192C64.5562 78.3335 63.9258 77.6965 63.1483 77.6965H56.2368C56.0659 76.756 56.0659 75.7918 56.2368 74.8513H63.1483C63.9258 74.8513 64.5562 74.2143 64.5562 73.4286C64.5562 72.6429 63.9258 72.006 63.1483 72.006H57.408C58.5121 70.2682 60.401 69.2011 62.4443 69.1607C63.9224 69.164 65.345 69.7297 66.4288 70.7452C66.8021 71.0863 67.3271 71.2002 67.806 71.0438C68.285 70.8875 68.6448 70.4846 68.7498 69.9873C68.8549 69.4899 68.6892 68.9738 68.3152 68.6334C66.7104 67.152 64.618 66.3259 62.4443 66.3154C58.8183 66.3879 55.5783 68.6212 54.1884 72.006H51.8849C51.1073 72.006 50.4769 72.6429 50.4769 73.4286C50.4769 74.2143 51.1073 74.8513 51.8849 74.8513H53.3972C53.258 75.7945 53.258 76.7533 53.3972 77.6965ZM81 76.2167C81 87.1059 72.2696 95.9333 61.5 95.9333C50.7304 95.9333 42 87.1059 42 76.2167C42 65.3275 50.7304 56.5 61.5 56.5C72.2646 56.5121 80.9881 65.3325 81 76.2167ZM61.5 59.5334C70.6127 59.5334 78 67.0027 78 76.2167C77.9897 85.4263 70.6084 92.8896 61.5 92.9C52.3873 92.9 45 85.4306 45 76.2167C45 67.0027 52.3873 59.5334 61.5 59.5334Z" fill="black"/>
<path d="M13.55 51.4715V53.4509C13.55 53.8619 13.7133 54.2562 14.004 54.5469C14.2947 54.8376 14.6889 55.0009 15.1 55.0009H16.65C17.0611 55.0009 17.4553 54.8376 17.746 54.5469C18.0367 54.2562 18.2 53.8619 18.2 53.4509V51.9009H36.8V53.4509C36.8 53.8619 36.9633 54.2562 37.254 54.5469C37.5447 54.8376 37.9389 55.0009 38.35 55.0009H39.9C40.3111 55.0009 40.7053 54.8376 40.996 54.5469C41.2867 54.2562 41.45 53.8619 41.45 53.4509V51.4715C41.9203 51.2018 42.3111 50.813 42.5832 50.3441C42.8554 49.8752 42.9991 49.343 43 48.8009V44.1509C43 42.8628 42.2141 41.7608 41.0966 41.2911L38.9762 34.9299C38.6686 34.0038 38.077 33.1981 37.2853 32.6274C36.4937 32.0567 35.5423 31.75 34.5664 31.7509H20.4335C19.4577 31.75 18.5063 32.0567 17.7147 32.6274C16.923 33.1981 16.3314 34.0038 16.0238 34.9299L13.9034 41.2911C13.3397 41.5272 12.8583 41.9246 12.5196 42.4334C12.181 42.9422 12.0002 43.5397 12 44.1509V48.8009C12 49.9448 12.6262 50.9337 13.55 51.4715ZM17.425 48.8009C17.1196 48.8008 16.8172 48.7405 16.535 48.6235C16.2529 48.5065 15.9966 48.3351 15.7807 48.1191C15.3446 47.6828 15.0998 47.0911 15.1 46.4743C15.1002 45.8575 15.3454 45.266 15.7818 44.83C16.2181 44.3939 16.8097 44.1491 17.4265 44.1493C18.0434 44.1495 18.6349 44.3947 19.0709 44.8311C19.5069 45.2674 19.7518 45.859 19.7515 46.4759C19.7513 47.0927 19.5061 47.6842 19.0698 48.1202C18.6335 48.5562 18.0418 48.8011 17.425 48.8009ZM37.575 48.8009C36.9582 48.8007 36.3667 48.5554 35.9307 48.1191C35.4946 47.6828 35.2498 47.0911 35.25 46.4743C35.2502 45.8575 35.4954 45.266 35.9318 44.83C36.3681 44.3939 36.9597 44.1491 37.5765 44.1493C38.1934 44.1495 38.7849 44.3947 39.2209 44.8311C39.6569 45.2674 39.9018 45.859 39.9015 46.4759C39.9013 47.0927 39.6561 47.6842 39.2198 48.1202C38.7835 48.5562 38.1918 48.8011 37.575 48.8009ZM20.4335 34.8509H34.5649C34.8903 34.8508 35.2076 34.9531 35.4716 35.1434C35.7356 35.3337 35.933 35.6023 36.0358 35.9111L37.7502 41.0509H17.2498L18.9626 35.9111C19.1749 35.2771 19.767 34.8509 20.4335 34.8509Z" fill="black"/>
<path d="M43 32.3522V29.0832L27.9898 24.0798C27.6581 23.9688 27.2985 23.9737 26.9699 24.0938L12 29.5374V32.8358L27.5232 27.1907L43 32.3522Z" fill="black"/>
</svg>
