<svg width="697" height="806" viewBox="0 0 697 806" fill="none" xmlns="http://www.w3.org/2000/svg">
<path fill-rule="evenodd" clip-rule="evenodd" d="M0.589844 71.75C0.589844 32.4631 32.9359 0.5 72.6934 0.5V29.4809C49.1079 29.4809 29.9179 48.4426 29.9179 71.75C29.9179 71.9989 29.9222 72.251 29.9254 72.5H0.597285C0.589844 72.251 0.589844 71.9989 0.589844 71.75Z" fill="url(#paint0_linear_309_21145)"/>
<path fill-rule="evenodd" clip-rule="evenodd" d="M176.843 2.25002C176.843 41.5369 144.497 73.5 104.739 73.5V44.5191C128.326 44.5191 147.515 25.5574 147.515 2.25002C147.515 2.00107 147.511 1.74896 147.507 1.5H176.836C176.843 1.74896 176.843 2.00107 176.843 2.25002Z" fill="url(#paint1_linear_309_21145)"/>
<path fill-rule="evenodd" clip-rule="evenodd" d="M208.889 71.75C208.889 32.4631 241.235 0.5 280.992 0.5V29.4809C257.407 29.4809 238.217 48.4426 238.217 71.75C238.217 71.9989 238.221 72.251 238.224 72.5H208.896C208.889 72.251 208.889 71.9989 208.889 71.75Z" fill="url(#paint2_linear_309_21145)"/>
<path fill-rule="evenodd" clip-rule="evenodd" d="M384.141 2.25002C384.141 41.5369 351.795 73.5 312.037 73.5V44.5191C335.623 44.5191 354.813 25.5574 354.813 2.25002C354.813 2.00107 354.808 1.74896 354.805 1.5H384.133C384.141 1.74896 384.141 2.00107 384.141 2.25002Z" fill="url(#paint3_linear_309_21145)"/>
<path fill-rule="evenodd" clip-rule="evenodd" d="M416.187 71.75C416.187 32.4631 448.533 0.5 488.29 0.5V29.4809C464.705 29.4809 445.515 48.4426 445.515 71.75C445.515 71.9989 445.519 72.251 445.522 72.5H416.194C416.187 72.251 416.187 71.9989 416.187 71.75Z" fill="url(#paint4_linear_309_21145)"/>
<path fill-rule="evenodd" clip-rule="evenodd" d="M592.441 2.25002C592.441 41.5369 560.094 73.5 520.337 73.5V44.5191C543.924 44.5191 563.112 25.5574 563.112 2.25002C563.112 2.00107 563.108 1.74896 563.105 1.5H592.434C592.441 1.74896 592.441 2.00107 592.441 2.25002Z" fill="url(#paint5_linear_309_21145)"/>
<path fill-rule="evenodd" clip-rule="evenodd" d="M624.486 71.75C624.486 32.4631 656.832 0.5 696.59 0.5V29.4809C673.004 29.4809 653.814 48.4426 653.814 71.75C653.814 71.9989 653.819 72.251 653.822 72.5H624.494C624.486 72.251 624.486 71.9989 624.486 71.75Z" fill="url(#paint6_linear_309_21145)"/>
<path fill-rule="evenodd" clip-rule="evenodd" d="M624.486 176.75C624.486 137.463 656.832 105.5 696.59 105.5V134.481C673.003 134.481 653.814 153.443 653.814 176.75C653.814 176.999 653.819 177.251 653.822 177.5H624.493C624.486 177.251 624.486 176.999 624.486 176.75Z" fill="url(#paint7_linear_309_21145)"/>
<path fill-rule="evenodd" clip-rule="evenodd" d="M624.486 281.75C624.486 242.463 656.832 210.5 696.59 210.5V239.481C673.004 239.481 653.814 258.443 653.814 281.75C653.814 281.999 653.819 282.251 653.822 282.5H624.494C624.486 282.251 624.486 281.999 624.486 281.75Z" fill="url(#paint8_linear_309_21145)"/>
<path fill-rule="evenodd" clip-rule="evenodd" d="M624.486 385.75C624.486 346.463 656.832 314.5 696.59 314.5V343.481C673.003 343.481 653.814 362.443 653.814 385.75C653.814 385.999 653.819 386.251 653.822 386.5H624.493C624.486 386.251 624.486 385.999 624.486 385.75Z" fill="url(#paint9_linear_309_21145)"/>
<path fill-rule="evenodd" clip-rule="evenodd" d="M624.486 490.75C624.486 451.463 656.832 419.5 696.59 419.5V448.481C673.004 448.481 653.814 467.443 653.814 490.75C653.814 490.999 653.819 491.251 653.822 491.5H624.494C624.486 491.251 624.486 490.999 624.486 490.75Z" fill="url(#paint10_linear_309_21145)"/>
<path fill-rule="evenodd" clip-rule="evenodd" d="M624.486 595.75C624.486 556.463 656.832 524.5 696.59 524.5V553.481C673.003 553.481 653.814 572.443 653.814 595.75C653.814 595.999 653.819 596.251 653.822 596.5H624.493C624.486 596.251 624.486 595.999 624.486 595.75Z" fill="url(#paint11_linear_309_21145)"/>
<path fill-rule="evenodd" clip-rule="evenodd" d="M624.486 700.75C624.486 661.463 656.832 629.5 696.59 629.5V658.481C673.004 658.481 653.814 677.443 653.814 700.75C653.814 700.999 653.819 701.251 653.822 701.5H624.494C624.486 701.251 624.486 700.999 624.486 700.75Z" fill="url(#paint12_linear_309_21145)"/>
<path fill-rule="evenodd" clip-rule="evenodd" d="M624.486 804.75C624.486 765.463 656.832 733.5 696.59 733.5V762.481C673.003 762.481 653.814 781.443 653.814 804.75C653.814 804.999 653.819 805.251 653.822 805.5H624.493C624.486 805.251 624.486 804.999 624.486 804.75Z" fill="url(#paint13_linear_309_21145)"/>
<path fill-rule="evenodd" clip-rule="evenodd" d="M0.589844 176.75C0.589844 137.463 32.9359 105.5 72.6934 105.5V134.481C49.1068 134.481 29.9179 153.443 29.9179 176.75C29.9179 176.999 29.9222 177.251 29.9254 177.5H0.597285C0.589844 177.251 0.589844 176.999 0.589844 176.75Z" fill="url(#paint14_linear_309_21145)"/>
<path fill-rule="evenodd" clip-rule="evenodd" d="M176.843 106.25C176.843 145.537 144.497 177.5 104.739 177.5V148.519C128.326 148.519 147.515 129.557 147.515 106.25C147.515 106.001 147.511 105.749 147.507 105.5H176.836C176.843 105.749 176.843 106.001 176.843 106.25Z" fill="url(#paint15_linear_309_21145)"/>
<path fill-rule="evenodd" clip-rule="evenodd" d="M208.889 176.75C208.889 137.463 241.235 105.5 280.992 105.5V134.481C257.406 134.481 238.217 153.443 238.217 176.75C238.217 176.999 238.221 177.251 238.224 177.5H208.896C208.889 177.251 208.889 176.999 208.889 176.75Z" fill="url(#paint16_linear_309_21145)"/>
<path fill-rule="evenodd" clip-rule="evenodd" d="M0.589844 281.75C0.589844 242.463 32.9359 210.5 72.6934 210.5V239.481C49.1079 239.481 29.9179 258.443 29.9179 281.75C29.9179 281.999 29.9222 282.251 29.9254 282.5H0.597285C0.589844 282.251 0.589844 281.999 0.589844 281.75Z" fill="url(#paint17_linear_309_21145)"/>
<path fill-rule="evenodd" clip-rule="evenodd" d="M0.589844 385.75C0.589844 346.463 32.9359 314.5 72.6934 314.5V343.481C49.1068 343.481 29.9179 362.443 29.9179 385.75C29.9179 385.999 29.9222 386.251 29.9254 386.5H0.597285C0.589844 386.251 0.589844 385.999 0.589844 385.75Z" fill="url(#paint18_linear_309_21145)"/>
<path fill-rule="evenodd" clip-rule="evenodd" d="M176.843 211.25C176.843 250.537 144.497 282.5 104.739 282.5V253.519C128.326 253.519 147.515 234.557 147.515 211.25C147.515 211.001 147.511 210.749 147.507 210.5H176.836C176.843 210.749 176.843 211.001 176.843 211.25Z" fill="url(#paint19_linear_309_21145)"/>
<path fill-rule="evenodd" clip-rule="evenodd" d="M176.843 315.25C176.843 354.537 144.497 386.5 104.739 386.5V357.519C128.326 357.519 147.515 338.557 147.515 315.25C147.515 315.001 147.511 314.749 147.507 314.5H176.836C176.843 314.749 176.843 315.001 176.843 315.25Z" fill="url(#paint20_linear_309_21145)"/>
<path fill-rule="evenodd" clip-rule="evenodd" d="M208.889 281.75C208.889 242.463 241.235 210.5 280.992 210.5V239.481C257.407 239.481 238.217 258.443 238.217 281.75C238.217 281.999 238.221 282.251 238.224 282.5H208.896C208.889 282.251 208.889 281.999 208.889 281.75Z" fill="url(#paint21_linear_309_21145)"/>
<path fill-rule="evenodd" clip-rule="evenodd" d="M208.889 385.75C208.889 346.463 241.235 314.5 280.992 314.5V343.481C257.406 343.481 238.217 362.443 238.217 385.75C238.217 385.999 238.221 386.251 238.224 386.5H208.896C208.889 386.251 208.889 385.999 208.889 385.75Z" fill="url(#paint22_linear_309_21145)"/>
<path fill-rule="evenodd" clip-rule="evenodd" d="M384.141 106.25C384.141 145.537 351.795 177.5 312.037 177.5V148.519C335.623 148.519 354.813 129.557 354.813 106.25C354.813 106.001 354.808 105.749 354.805 105.5H384.133C384.141 105.749 384.141 106.001 384.141 106.25Z" fill="url(#paint23_linear_309_21145)"/>
<path fill-rule="evenodd" clip-rule="evenodd" d="M416.187 176.75C416.187 137.463 448.533 105.5 488.29 105.5V134.481C464.705 134.481 445.515 153.443 445.515 176.75C445.515 176.999 445.519 177.251 445.522 177.5H416.194C416.187 177.251 416.187 176.999 416.187 176.75Z" fill="url(#paint24_linear_309_21145)"/>
<path fill-rule="evenodd" clip-rule="evenodd" d="M592.441 106.25C592.441 145.537 560.094 177.5 520.337 177.5V148.519C543.924 148.519 563.112 129.557 563.112 106.25C563.112 106.001 563.108 105.749 563.105 105.5H592.434C592.441 105.749 592.441 106.001 592.441 106.25Z" fill="url(#paint25_linear_309_21145)"/>
<path fill-rule="evenodd" clip-rule="evenodd" d="M384.141 211.25C384.141 250.537 351.795 282.5 312.037 282.5V253.519C335.623 253.519 354.813 234.557 354.813 211.25C354.813 211.001 354.808 210.749 354.805 210.5H384.133C384.141 210.749 384.141 211.001 384.141 211.25Z" fill="url(#paint26_linear_309_21145)"/>
<path fill-rule="evenodd" clip-rule="evenodd" d="M384.141 315.25C384.141 354.537 351.795 386.5 312.037 386.5V357.519C335.623 357.519 354.813 338.557 354.813 315.25C354.813 315.001 354.808 314.749 354.805 314.5H384.133C384.141 314.749 384.141 315.001 384.141 315.25Z" fill="url(#paint27_linear_309_21145)"/>
<path fill-rule="evenodd" clip-rule="evenodd" d="M416.187 281.75C416.187 242.463 448.533 210.5 488.29 210.5V239.481C464.705 239.481 445.515 258.443 445.515 281.75C445.515 281.999 445.519 282.251 445.522 282.5H416.194C416.187 282.251 416.187 281.999 416.187 281.75Z" fill="url(#paint28_linear_309_21145)"/>
<path fill-rule="evenodd" clip-rule="evenodd" d="M416.187 385.75C416.187 346.463 448.533 314.5 488.29 314.5V343.481C464.705 343.481 445.515 362.443 445.515 385.75C445.515 385.999 445.519 386.251 445.522 386.5H416.194C416.187 386.251 416.187 385.999 416.187 385.75Z" fill="url(#paint29_linear_309_21145)"/>
<path fill-rule="evenodd" clip-rule="evenodd" d="M592.441 211.25C592.441 250.537 560.094 282.5 520.337 282.5V253.519C543.924 253.519 563.112 234.557 563.112 211.25C563.112 211.001 563.108 210.749 563.105 210.5H592.434C592.441 210.749 592.441 211.001 592.441 211.25Z" fill="url(#paint30_linear_309_21145)"/>
<path fill-rule="evenodd" clip-rule="evenodd" d="M592.441 315.25C592.441 354.537 560.094 386.5 520.337 386.5V357.519C543.924 357.519 563.112 338.557 563.112 315.25C563.112 315.001 563.108 314.749 563.105 314.5H592.434C592.441 314.749 592.441 315.001 592.441 315.25Z" fill="url(#paint31_linear_309_21145)"/>
<path fill-rule="evenodd" clip-rule="evenodd" d="M0.589844 490.75C0.589844 451.463 32.9359 419.5 72.6934 419.5V448.481C49.1079 448.481 29.9179 467.443 29.9179 490.75C29.9179 490.999 29.9222 491.251 29.9254 491.5H0.597285C0.589844 491.251 0.589844 490.999 0.589844 490.75Z" fill="url(#paint32_linear_309_21145)"/>
<path fill-rule="evenodd" clip-rule="evenodd" d="M0.589844 595.75C0.589844 556.463 32.9359 524.5 72.6934 524.5V553.481C49.1068 553.481 29.9179 572.443 29.9179 595.75C29.9179 595.999 29.9222 596.251 29.9254 596.5H0.597285C0.589844 596.251 0.589844 595.999 0.589844 595.75Z" fill="url(#paint33_linear_309_21145)"/>
<path fill-rule="evenodd" clip-rule="evenodd" d="M176.843 421.25C176.843 460.537 144.497 492.5 104.739 492.5V463.519C128.326 463.519 147.515 444.557 147.515 421.25C147.515 421.001 147.511 420.749 147.507 420.5H176.836C176.843 420.749 176.843 421.001 176.843 421.25Z" fill="url(#paint34_linear_309_21145)"/>
<path fill-rule="evenodd" clip-rule="evenodd" d="M176.843 525.25C176.843 564.537 144.497 596.5 104.739 596.5V567.519C128.326 567.519 147.515 548.557 147.515 525.25C147.515 525.001 147.511 524.749 147.507 524.5H176.836C176.843 524.749 176.843 525.001 176.843 525.25Z" fill="url(#paint35_linear_309_21145)"/>
<path fill-rule="evenodd" clip-rule="evenodd" d="M208.889 490.75C208.889 451.463 241.235 419.5 280.992 419.5V448.481C257.407 448.481 238.217 467.443 238.217 490.75C238.217 490.999 238.221 491.251 238.224 491.5H208.896C208.889 491.251 208.889 490.999 208.889 490.75Z" fill="url(#paint36_linear_309_21145)"/>
<path fill-rule="evenodd" clip-rule="evenodd" d="M208.889 595.75C208.889 556.463 241.235 524.5 280.992 524.5V553.481C257.406 553.481 238.217 572.443 238.217 595.75C238.217 595.999 238.221 596.251 238.224 596.5H208.896C208.889 596.251 208.889 595.999 208.889 595.75Z" fill="url(#paint37_linear_309_21145)"/>
<path fill-rule="evenodd" clip-rule="evenodd" d="M0.589844 700.75C0.589844 661.463 32.9359 629.5 72.6934 629.5V658.481C49.1079 658.481 29.9179 677.443 29.9179 700.75C29.9179 700.999 29.9222 701.251 29.9254 701.5H0.597285C0.589844 701.251 0.589844 700.999 0.589844 700.75Z" fill="url(#paint38_linear_309_21145)"/>
<path fill-rule="evenodd" clip-rule="evenodd" d="M0.589844 804.75C0.589844 765.463 32.9359 733.5 72.6934 733.5V762.481C49.1068 762.481 29.9179 781.443 29.9179 804.75C29.9179 804.999 29.9222 805.251 29.9254 805.5H0.597285C0.589844 805.251 0.589844 804.999 0.589844 804.75Z" fill="url(#paint39_linear_309_21145)"/>
<path fill-rule="evenodd" clip-rule="evenodd" d="M176.843 630.25C176.843 669.537 144.497 701.5 104.739 701.5V672.519C128.326 672.519 147.515 653.557 147.515 630.25C147.515 630.001 147.511 629.749 147.507 629.5H176.836C176.843 629.749 176.843 630.001 176.843 630.25Z" fill="url(#paint40_linear_309_21145)"/>
<path fill-rule="evenodd" clip-rule="evenodd" d="M176.843 734.25C176.843 773.537 144.497 805.5 104.739 805.5V776.519C128.326 776.519 147.515 757.557 147.515 734.25C147.515 734.001 147.511 733.749 147.507 733.5H176.836C176.843 733.749 176.843 734.001 176.843 734.25Z" fill="url(#paint41_linear_309_21145)"/>
<path fill-rule="evenodd" clip-rule="evenodd" d="M208.889 700.75C208.889 661.463 241.235 629.5 280.992 629.5V658.481C257.407 658.481 238.217 677.443 238.217 700.75C238.217 700.999 238.221 701.251 238.224 701.5H208.896C208.889 701.251 208.889 700.999 208.889 700.75Z" fill="url(#paint42_linear_309_21145)"/>
<path fill-rule="evenodd" clip-rule="evenodd" d="M208.889 804.75C208.889 765.463 241.235 733.5 280.992 733.5V762.481C257.406 762.481 238.217 781.443 238.217 804.75C238.217 804.999 238.221 805.251 238.224 805.5H208.896C208.889 805.251 208.889 804.999 208.889 804.75Z" fill="url(#paint43_linear_309_21145)"/>
<path fill-rule="evenodd" clip-rule="evenodd" d="M384.141 421.25C384.141 460.537 351.795 492.5 312.037 492.5V463.519C335.623 463.519 354.813 444.557 354.813 421.25C354.813 421.001 354.808 420.749 354.805 420.5H384.133C384.141 420.749 384.141 421.001 384.141 421.25Z" fill="url(#paint44_linear_309_21145)"/>
<path fill-rule="evenodd" clip-rule="evenodd" d="M384.141 525.25C384.141 564.537 351.795 596.5 312.037 596.5V567.519C335.623 567.519 354.813 548.557 354.813 525.25C354.813 525.001 354.808 524.749 354.805 524.5H384.133C384.141 524.749 384.141 525.001 384.141 525.25Z" fill="url(#paint45_linear_309_21145)"/>
<path fill-rule="evenodd" clip-rule="evenodd" d="M416.187 490.75C416.187 451.463 448.533 419.5 488.29 419.5V448.481C464.705 448.481 445.515 467.443 445.515 490.75C445.515 490.999 445.519 491.251 445.522 491.5H416.194C416.187 491.251 416.187 490.999 416.187 490.75Z" fill="url(#paint46_linear_309_21145)"/>
<path fill-rule="evenodd" clip-rule="evenodd" d="M416.187 595.75C416.187 556.463 448.533 524.5 488.29 524.5V553.481C464.705 553.481 445.515 572.443 445.515 595.75C445.515 595.999 445.519 596.251 445.522 596.5H416.194C416.187 596.251 416.187 595.999 416.187 595.75Z" fill="url(#paint47_linear_309_21145)"/>
<path fill-rule="evenodd" clip-rule="evenodd" d="M592.441 421.25C592.441 460.537 560.094 492.5 520.337 492.5V463.519C543.924 463.519 563.112 444.557 563.112 421.25C563.112 421.001 563.108 420.749 563.105 420.5H592.434C592.441 420.749 592.441 421.001 592.441 421.25Z" fill="url(#paint48_linear_309_21145)"/>
<path fill-rule="evenodd" clip-rule="evenodd" d="M592.441 525.25C592.441 564.537 560.094 596.5 520.337 596.5V567.519C543.924 567.519 563.112 548.557 563.112 525.25C563.112 525.001 563.108 524.749 563.105 524.5H592.434C592.441 524.749 592.441 525.001 592.441 525.25Z" fill="url(#paint49_linear_309_21145)"/>
<path fill-rule="evenodd" clip-rule="evenodd" d="M384.141 630.25C384.141 669.537 351.795 701.5 312.037 701.5V672.519C335.623 672.519 354.813 653.557 354.813 630.25C354.813 630.001 354.808 629.749 354.805 629.5H384.133C384.141 629.749 384.141 630.001 384.141 630.25Z" fill="url(#paint50_linear_309_21145)"/>
<path fill-rule="evenodd" clip-rule="evenodd" d="M384.141 734.25C384.141 773.537 351.795 805.5 312.037 805.5V776.519C335.623 776.519 354.813 757.557 354.813 734.25C354.813 734.001 354.808 733.749 354.805 733.5H384.133C384.141 733.749 384.141 734.001 384.141 734.25Z" fill="url(#paint51_linear_309_21145)"/>
<path fill-rule="evenodd" clip-rule="evenodd" d="M416.187 700.75C416.187 661.463 448.533 629.5 488.29 629.5V658.481C464.705 658.481 445.515 677.443 445.515 700.75C445.515 700.999 445.519 701.251 445.522 701.5H416.194C416.187 701.251 416.187 700.999 416.187 700.75Z" fill="url(#paint52_linear_309_21145)"/>
<path fill-rule="evenodd" clip-rule="evenodd" d="M416.187 804.75C416.187 765.463 448.533 733.5 488.29 733.5V762.481C464.705 762.481 445.515 781.443 445.515 804.75C445.515 804.999 445.519 805.251 445.522 805.5H416.194C416.187 805.251 416.187 804.999 416.187 804.75Z" fill="url(#paint53_linear_309_21145)"/>
<path fill-rule="evenodd" clip-rule="evenodd" d="M592.441 630.25C592.441 669.537 560.094 701.5 520.337 701.5V672.519C543.924 672.519 563.112 653.557 563.112 630.25C563.112 630.001 563.108 629.749 563.105 629.5H592.434C592.441 629.749 592.441 630.001 592.441 630.25Z" fill="url(#paint54_linear_309_21145)"/>
<path fill-rule="evenodd" clip-rule="evenodd" d="M592.441 734.25C592.441 773.537 560.094 805.5 520.337 805.5V776.519C543.924 776.519 563.112 757.557 563.112 734.25C563.112 734.001 563.108 733.749 563.105 733.5H592.434C592.441 733.749 592.441 734.001 592.441 734.25Z" fill="url(#paint55_linear_309_21145)"/>
<defs>
<linearGradient id="paint0_linear_309_21145" x1="36.6416" y1="0.5" x2="36.6416" y2="72.5" gradientUnits="userSpaceOnUse">
<stop stop-color="#0DA88C"/>
<stop offset="1" stop-color="#0DA88C" stop-opacity="0"/>
</linearGradient>
<linearGradient id="paint1_linear_309_21145" x1="140.791" y1="1.5" x2="140.791" y2="73.5" gradientUnits="userSpaceOnUse">
<stop stop-color="#0DA88C"/>
<stop offset="1" stop-color="#0DA88C" stop-opacity="0"/>
</linearGradient>
<linearGradient id="paint2_linear_309_21145" x1="244.94" y1="0.5" x2="244.94" y2="72.5" gradientUnits="userSpaceOnUse">
<stop stop-color="#0DA88C"/>
<stop offset="1" stop-color="#0DA88C" stop-opacity="0"/>
</linearGradient>
<linearGradient id="paint3_linear_309_21145" x1="348.089" y1="1.5" x2="348.089" y2="73.5" gradientUnits="userSpaceOnUse">
<stop stop-color="#0DA88C"/>
<stop offset="1" stop-color="#0DA88C" stop-opacity="0"/>
</linearGradient>
<linearGradient id="paint4_linear_309_21145" x1="452.238" y1="0.5" x2="452.238" y2="72.5" gradientUnits="userSpaceOnUse">
<stop stop-color="#0DA88C"/>
<stop offset="1" stop-color="#0DA88C" stop-opacity="0"/>
</linearGradient>
<linearGradient id="paint5_linear_309_21145" x1="556.389" y1="1.5" x2="556.389" y2="73.5" gradientUnits="userSpaceOnUse">
<stop stop-color="#0DA88C"/>
<stop offset="1" stop-color="#0DA88C" stop-opacity="0"/>
</linearGradient>
<linearGradient id="paint6_linear_309_21145" x1="660.538" y1="0.5" x2="660.538" y2="72.5" gradientUnits="userSpaceOnUse">
<stop stop-color="#0DA88C"/>
<stop offset="1" stop-color="#0DA88C" stop-opacity="0"/>
</linearGradient>
<linearGradient id="paint7_linear_309_21145" x1="660.538" y1="105.5" x2="660.538" y2="177.5" gradientUnits="userSpaceOnUse">
<stop stop-color="#0DA88C"/>
<stop offset="1" stop-color="#0DA88C" stop-opacity="0"/>
</linearGradient>
<linearGradient id="paint8_linear_309_21145" x1="660.538" y1="210.5" x2="660.538" y2="282.5" gradientUnits="userSpaceOnUse">
<stop stop-color="#0DA88C"/>
<stop offset="1" stop-color="#0DA88C" stop-opacity="0"/>
</linearGradient>
<linearGradient id="paint9_linear_309_21145" x1="660.538" y1="314.5" x2="660.538" y2="386.5" gradientUnits="userSpaceOnUse">
<stop stop-color="#0DA88C"/>
<stop offset="1" stop-color="#0DA88C" stop-opacity="0"/>
</linearGradient>
<linearGradient id="paint10_linear_309_21145" x1="660.538" y1="419.5" x2="660.538" y2="491.5" gradientUnits="userSpaceOnUse">
<stop stop-color="#0DA88C"/>
<stop offset="1" stop-color="#0DA88C" stop-opacity="0"/>
</linearGradient>
<linearGradient id="paint11_linear_309_21145" x1="660.538" y1="524.5" x2="660.538" y2="596.5" gradientUnits="userSpaceOnUse">
<stop stop-color="#0DA88C"/>
<stop offset="1" stop-color="#0DA88C" stop-opacity="0"/>
</linearGradient>
<linearGradient id="paint12_linear_309_21145" x1="660.538" y1="629.5" x2="660.538" y2="701.5" gradientUnits="userSpaceOnUse">
<stop stop-color="#0DA88C"/>
<stop offset="1" stop-color="#0DA88C" stop-opacity="0"/>
</linearGradient>
<linearGradient id="paint13_linear_309_21145" x1="660.538" y1="733.5" x2="660.538" y2="805.5" gradientUnits="userSpaceOnUse">
<stop stop-color="#0DA88C"/>
<stop offset="1" stop-color="#0DA88C" stop-opacity="0"/>
</linearGradient>
<linearGradient id="paint14_linear_309_21145" x1="36.6416" y1="105.5" x2="36.6416" y2="177.5" gradientUnits="userSpaceOnUse">
<stop stop-color="#0DA88C"/>
<stop offset="1" stop-color="#0DA88C" stop-opacity="0"/>
</linearGradient>
<linearGradient id="paint15_linear_309_21145" x1="140.791" y1="105.5" x2="140.791" y2="177.5" gradientUnits="userSpaceOnUse">
<stop stop-color="#0DA88C"/>
<stop offset="1" stop-color="#0DA88C" stop-opacity="0"/>
</linearGradient>
<linearGradient id="paint16_linear_309_21145" x1="244.94" y1="105.5" x2="244.94" y2="177.5" gradientUnits="userSpaceOnUse">
<stop stop-color="#0DA88C"/>
<stop offset="1" stop-color="#0DA88C" stop-opacity="0"/>
</linearGradient>
<linearGradient id="paint17_linear_309_21145" x1="36.6416" y1="210.5" x2="36.6416" y2="282.5" gradientUnits="userSpaceOnUse">
<stop stop-color="#0DA88C"/>
<stop offset="1" stop-color="#0DA88C" stop-opacity="0"/>
</linearGradient>
<linearGradient id="paint18_linear_309_21145" x1="36.6416" y1="314.5" x2="36.6416" y2="386.5" gradientUnits="userSpaceOnUse">
<stop stop-color="#0DA88C"/>
<stop offset="1" stop-color="#0DA88C" stop-opacity="0"/>
</linearGradient>
<linearGradient id="paint19_linear_309_21145" x1="140.791" y1="210.5" x2="140.791" y2="282.5" gradientUnits="userSpaceOnUse">
<stop stop-color="#0DA88C"/>
<stop offset="1" stop-color="#0DA88C" stop-opacity="0"/>
</linearGradient>
<linearGradient id="paint20_linear_309_21145" x1="140.791" y1="314.5" x2="140.791" y2="386.5" gradientUnits="userSpaceOnUse">
<stop stop-color="#0DA88C"/>
<stop offset="1" stop-color="#0DA88C" stop-opacity="0"/>
</linearGradient>
<linearGradient id="paint21_linear_309_21145" x1="244.94" y1="210.5" x2="244.94" y2="282.5" gradientUnits="userSpaceOnUse">
<stop stop-color="#0DA88C"/>
<stop offset="1" stop-color="#0DA88C" stop-opacity="0"/>
</linearGradient>
<linearGradient id="paint22_linear_309_21145" x1="244.94" y1="314.5" x2="244.94" y2="386.5" gradientUnits="userSpaceOnUse">
<stop stop-color="#0DA88C"/>
<stop offset="1" stop-color="#0DA88C" stop-opacity="0"/>
</linearGradient>
<linearGradient id="paint23_linear_309_21145" x1="348.089" y1="105.5" x2="348.089" y2="177.5" gradientUnits="userSpaceOnUse">
<stop stop-color="#0DA88C"/>
<stop offset="1" stop-color="#0DA88C" stop-opacity="0"/>
</linearGradient>
<linearGradient id="paint24_linear_309_21145" x1="452.238" y1="105.5" x2="452.238" y2="177.5" gradientUnits="userSpaceOnUse">
<stop stop-color="#0DA88C"/>
<stop offset="1" stop-color="#0DA88C" stop-opacity="0"/>
</linearGradient>
<linearGradient id="paint25_linear_309_21145" x1="556.389" y1="105.5" x2="556.389" y2="177.5" gradientUnits="userSpaceOnUse">
<stop stop-color="#0DA88C"/>
<stop offset="1" stop-color="#0DA88C" stop-opacity="0"/>
</linearGradient>
<linearGradient id="paint26_linear_309_21145" x1="348.089" y1="210.5" x2="348.089" y2="282.5" gradientUnits="userSpaceOnUse">
<stop stop-color="#0DA88C"/>
<stop offset="1" stop-color="#0DA88C" stop-opacity="0"/>
</linearGradient>
<linearGradient id="paint27_linear_309_21145" x1="348.089" y1="314.5" x2="348.089" y2="386.5" gradientUnits="userSpaceOnUse">
<stop stop-color="#0DA88C"/>
<stop offset="1" stop-color="#0DA88C" stop-opacity="0"/>
</linearGradient>
<linearGradient id="paint28_linear_309_21145" x1="452.238" y1="210.5" x2="452.238" y2="282.5" gradientUnits="userSpaceOnUse">
<stop stop-color="#0DA88C"/>
<stop offset="1" stop-color="#0DA88C" stop-opacity="0"/>
</linearGradient>
<linearGradient id="paint29_linear_309_21145" x1="452.238" y1="314.5" x2="452.238" y2="386.5" gradientUnits="userSpaceOnUse">
<stop stop-color="#0DA88C"/>
<stop offset="1" stop-color="#0DA88C" stop-opacity="0"/>
</linearGradient>
<linearGradient id="paint30_linear_309_21145" x1="556.389" y1="210.5" x2="556.389" y2="282.5" gradientUnits="userSpaceOnUse">
<stop stop-color="#0DA88C"/>
<stop offset="1" stop-color="#0DA88C" stop-opacity="0"/>
</linearGradient>
<linearGradient id="paint31_linear_309_21145" x1="556.389" y1="314.5" x2="556.389" y2="386.5" gradientUnits="userSpaceOnUse">
<stop stop-color="#0DA88C"/>
<stop offset="1" stop-color="#0DA88C" stop-opacity="0"/>
</linearGradient>
<linearGradient id="paint32_linear_309_21145" x1="36.6416" y1="419.5" x2="36.6416" y2="491.5" gradientUnits="userSpaceOnUse">
<stop stop-color="#0DA88C"/>
<stop offset="1" stop-color="#0DA88C" stop-opacity="0"/>
</linearGradient>
<linearGradient id="paint33_linear_309_21145" x1="36.6416" y1="524.5" x2="36.6416" y2="596.5" gradientUnits="userSpaceOnUse">
<stop stop-color="#0DA88C"/>
<stop offset="1" stop-color="#0DA88C" stop-opacity="0"/>
</linearGradient>
<linearGradient id="paint34_linear_309_21145" x1="140.791" y1="420.5" x2="140.791" y2="492.5" gradientUnits="userSpaceOnUse">
<stop stop-color="#0DA88C"/>
<stop offset="1" stop-color="#0DA88C" stop-opacity="0"/>
</linearGradient>
<linearGradient id="paint35_linear_309_21145" x1="140.791" y1="524.5" x2="140.791" y2="596.5" gradientUnits="userSpaceOnUse">
<stop stop-color="#0DA88C"/>
<stop offset="1" stop-color="#0DA88C" stop-opacity="0"/>
</linearGradient>
<linearGradient id="paint36_linear_309_21145" x1="244.94" y1="419.5" x2="244.94" y2="491.5" gradientUnits="userSpaceOnUse">
<stop stop-color="#0DA88C"/>
<stop offset="1" stop-color="#0DA88C" stop-opacity="0"/>
</linearGradient>
<linearGradient id="paint37_linear_309_21145" x1="244.94" y1="524.5" x2="244.94" y2="596.5" gradientUnits="userSpaceOnUse">
<stop stop-color="#0DA88C"/>
<stop offset="1" stop-color="#0DA88C" stop-opacity="0"/>
</linearGradient>
<linearGradient id="paint38_linear_309_21145" x1="36.6416" y1="629.5" x2="36.6416" y2="701.5" gradientUnits="userSpaceOnUse">
<stop stop-color="#0DA88C"/>
<stop offset="1" stop-color="#0DA88C" stop-opacity="0"/>
</linearGradient>
<linearGradient id="paint39_linear_309_21145" x1="36.6416" y1="733.5" x2="36.6416" y2="805.5" gradientUnits="userSpaceOnUse">
<stop stop-color="#0DA88C"/>
<stop offset="1" stop-color="#0DA88C" stop-opacity="0"/>
</linearGradient>
<linearGradient id="paint40_linear_309_21145" x1="140.791" y1="629.5" x2="140.791" y2="701.5" gradientUnits="userSpaceOnUse">
<stop stop-color="#0DA88C"/>
<stop offset="1" stop-color="#0DA88C" stop-opacity="0"/>
</linearGradient>
<linearGradient id="paint41_linear_309_21145" x1="140.791" y1="733.5" x2="140.791" y2="805.5" gradientUnits="userSpaceOnUse">
<stop stop-color="#0DA88C"/>
<stop offset="1" stop-color="#0DA88C" stop-opacity="0"/>
</linearGradient>
<linearGradient id="paint42_linear_309_21145" x1="244.94" y1="629.5" x2="244.94" y2="701.5" gradientUnits="userSpaceOnUse">
<stop stop-color="#0DA88C"/>
<stop offset="1" stop-color="#0DA88C" stop-opacity="0"/>
</linearGradient>
<linearGradient id="paint43_linear_309_21145" x1="244.94" y1="733.5" x2="244.94" y2="805.5" gradientUnits="userSpaceOnUse">
<stop stop-color="#0DA88C"/>
<stop offset="1" stop-color="#0DA88C" stop-opacity="0"/>
</linearGradient>
<linearGradient id="paint44_linear_309_21145" x1="348.089" y1="420.5" x2="348.089" y2="492.5" gradientUnits="userSpaceOnUse">
<stop stop-color="#0DA88C"/>
<stop offset="1" stop-color="#0DA88C" stop-opacity="0"/>
</linearGradient>
<linearGradient id="paint45_linear_309_21145" x1="348.089" y1="524.5" x2="348.089" y2="596.5" gradientUnits="userSpaceOnUse">
<stop stop-color="#0DA88C"/>
<stop offset="1" stop-color="#0DA88C" stop-opacity="0"/>
</linearGradient>
<linearGradient id="paint46_linear_309_21145" x1="452.238" y1="419.5" x2="452.238" y2="491.5" gradientUnits="userSpaceOnUse">
<stop stop-color="#0DA88C"/>
<stop offset="1" stop-color="#0DA88C" stop-opacity="0"/>
</linearGradient>
<linearGradient id="paint47_linear_309_21145" x1="452.238" y1="524.5" x2="452.238" y2="596.5" gradientUnits="userSpaceOnUse">
<stop stop-color="#0DA88C"/>
<stop offset="1" stop-color="#0DA88C" stop-opacity="0"/>
</linearGradient>
<linearGradient id="paint48_linear_309_21145" x1="556.389" y1="420.5" x2="556.389" y2="492.5" gradientUnits="userSpaceOnUse">
<stop stop-color="#0DA88C"/>
<stop offset="1" stop-color="#0DA88C" stop-opacity="0"/>
</linearGradient>
<linearGradient id="paint49_linear_309_21145" x1="556.389" y1="524.5" x2="556.389" y2="596.5" gradientUnits="userSpaceOnUse">
<stop stop-color="#0DA88C"/>
<stop offset="1" stop-color="#0DA88C" stop-opacity="0"/>
</linearGradient>
<linearGradient id="paint50_linear_309_21145" x1="348.089" y1="629.5" x2="348.089" y2="701.5" gradientUnits="userSpaceOnUse">
<stop stop-color="#0DA88C"/>
<stop offset="1" stop-color="#0DA88C" stop-opacity="0"/>
</linearGradient>
<linearGradient id="paint51_linear_309_21145" x1="348.089" y1="733.5" x2="348.089" y2="805.5" gradientUnits="userSpaceOnUse">
<stop stop-color="#0DA88C"/>
<stop offset="1" stop-color="#0DA88C" stop-opacity="0"/>
</linearGradient>
<linearGradient id="paint52_linear_309_21145" x1="452.238" y1="629.5" x2="452.238" y2="701.5" gradientUnits="userSpaceOnUse">
<stop stop-color="#0DA88C"/>
<stop offset="1" stop-color="#0DA88C" stop-opacity="0"/>
</linearGradient>
<linearGradient id="paint53_linear_309_21145" x1="452.238" y1="733.5" x2="452.238" y2="805.5" gradientUnits="userSpaceOnUse">
<stop stop-color="#0DA88C"/>
<stop offset="1" stop-color="#0DA88C" stop-opacity="0"/>
</linearGradient>
<linearGradient id="paint54_linear_309_21145" x1="556.389" y1="629.5" x2="556.389" y2="701.5" gradientUnits="userSpaceOnUse">
<stop stop-color="#0DA88C"/>
<stop offset="1" stop-color="#0DA88C" stop-opacity="0"/>
</linearGradient>
<linearGradient id="paint55_linear_309_21145" x1="556.389" y1="733.5" x2="556.389" y2="805.5" gradientUnits="userSpaceOnUse">
<stop stop-color="#0DA88C"/>
<stop offset="1" stop-color="#0DA88C" stop-opacity="0"/>
</linearGradient>
</defs>
</svg>
