<svg width="1920" height="422" viewBox="0 0 1920 422" fill="none" xmlns="http://www.w3.org/2000/svg">
<g opacity="0.2">
<path fill-rule="evenodd" clip-rule="evenodd" d="M1732.84 75.2811C1719.95 -52.3862 1814.58 -166.865 1943.77 -179.908L1953.28 -85.7312C1876.64 -77.9938 1820.5 -10.0803 1828.14 65.66C1828.23 66.469 1828.32 67.2868 1828.41 68.0948L1733.11 77.716C1733 76.9094 1732.92 76.0901 1732.84 75.2811Z" fill="url(#paint0_linear_385_96)"/>
<path fill-rule="evenodd" clip-rule="evenodd" d="M1767.29 416.491C1754.4 288.824 1849.02 174.344 1978.22 161.302L1987.73 255.479C1911.08 263.216 1854.94 331.13 1862.59 406.87C1862.67 407.679 1862.77 408.497 1862.86 409.305L1767.55 418.926C1767.45 418.119 1767.37 417.3 1767.29 416.491Z" fill="url(#paint1_linear_385_96)"/>
<path fill-rule="evenodd" clip-rule="evenodd" d="M255.381 -3.71519C268.269 123.952 173.642 238.431 44.445 251.474L34.9378 157.297C111.585 149.559 167.721 81.6462 160.075 5.90599C159.994 5.09698 159.897 4.27911 159.805 3.47115L255.114 -6.15038C255.216 -5.34346 255.299 -4.5242 255.381 -3.71519Z" fill="url(#paint2_linear_385_96)"/>
<path fill-rule="evenodd" clip-rule="evenodd" d="M289.494 334.244C302.382 461.912 207.755 576.391 78.5583 589.433L69.051 495.256C145.699 487.519 201.835 419.606 194.189 343.865C194.107 343.056 194.01 342.238 193.918 341.43L289.227 331.809C289.329 332.616 289.412 333.435 289.494 334.244Z" fill="url(#paint3_linear_385_96)"/>
<path fill-rule="evenodd" clip-rule="evenodd" d="M382.312 211.619C369.424 83.9517 464.051 -30.5275 593.248 -43.5701L602.755 50.6068C526.111 58.3441 469.971 126.258 477.617 201.998C477.699 202.807 477.796 203.625 477.888 204.433L382.582 214.054C382.477 213.247 382.394 212.428 382.312 211.619Z" fill="url(#paint4_linear_385_96)"/>
<path fill-rule="evenodd" clip-rule="evenodd" d="M416.755 552.829C403.866 425.162 498.493 310.683 627.69 297.64L637.197 391.817C560.55 399.555 504.414 467.468 512.06 543.208C512.141 544.017 512.238 544.835 512.33 545.643L417.025 555.264C416.919 554.457 416.836 553.638 416.755 552.829Z" fill="url(#paint5_linear_385_96)"/>
<path fill-rule="evenodd" clip-rule="evenodd" d="M929.016 -71.7198C941.904 55.9476 847.278 170.427 718.081 183.469L708.573 89.2925C785.218 81.5552 841.357 13.6416 833.711 -62.0986C833.629 -62.9076 833.533 -63.7255 833.441 -64.5334L928.746 -74.1546C928.852 -73.348 928.935 -72.5288 929.016 -71.7198Z" fill="url(#paint6_linear_385_96)"/>
<path fill-rule="evenodd" clip-rule="evenodd" d="M963.136 266.241C976.025 393.908 881.398 508.388 752.201 521.43L742.694 427.253C819.338 419.516 875.477 351.602 867.831 275.862C867.75 275.053 867.653 274.235 867.561 273.427L962.866 263.806C962.972 264.613 963.055 265.432 963.136 266.241Z" fill="url(#paint7_linear_385_96)"/>
<path fill-rule="evenodd" clip-rule="evenodd" d="M1055.95 143.616C1043.06 15.9489 1137.69 -98.5303 1266.89 -111.573L1276.4 -17.396C1199.75 -9.65872 1143.61 58.2549 1151.26 133.995C1151.34 134.804 1151.44 135.622 1151.53 136.43L1056.22 146.051C1056.12 145.245 1056.03 144.425 1055.95 143.616Z" fill="url(#paint8_linear_385_96)"/>
<path fill-rule="evenodd" clip-rule="evenodd" d="M1090.39 484.825C1077.5 357.157 1172.13 242.678 1301.33 229.636L1310.83 323.812C1234.19 331.55 1178.05 399.463 1185.7 475.204C1185.78 476.013 1185.87 476.83 1185.97 477.638L1090.66 487.26C1090.55 486.453 1090.47 485.634 1090.39 484.825Z" fill="url(#paint9_linear_385_96)"/>
<path fill-rule="evenodd" clip-rule="evenodd" d="M1605.91 -140.054C1618.8 -12.3866 1524.17 102.093 1394.97 115.135L1385.47 20.9583C1462.11 13.2207 1518.25 -54.6926 1510.6 -130.433C1510.52 -131.242 1510.42 -132.06 1510.33 -132.868L1605.64 -142.489C1605.74 -141.682 1605.83 -140.863 1605.91 -140.054Z" fill="url(#paint10_linear_385_96)"/>
<path fill-rule="evenodd" clip-rule="evenodd" d="M1640.02 197.907C1652.91 325.574 1558.28 440.053 1429.09 453.096L1419.58 358.919C1496.23 351.181 1552.36 283.268 1544.72 207.528C1544.64 206.719 1544.54 205.901 1544.45 205.093L1639.76 195.471C1639.86 196.278 1639.94 197.098 1640.02 197.907Z" fill="url(#paint11_linear_385_96)"/>
</g>
<defs>
<linearGradient id="paint0_linear_385_96" x1="1826.62" y1="-168.081" x2="1850.24" y2="65.8915" gradientUnits="userSpaceOnUse">
<stop stop-color="#0DA88C"/>
<stop offset="1" stop-color="#0DA88C" stop-opacity="0"/>
</linearGradient>
<linearGradient id="paint1_linear_385_96" x1="1861.07" y1="173.129" x2="1884.69" y2="407.101" gradientUnits="userSpaceOnUse">
<stop stop-color="#0DA88C"/>
<stop offset="1" stop-color="#0DA88C" stop-opacity="0"/>
</linearGradient>
<linearGradient id="paint2_linear_385_96" x1="137.98" y1="5.67444" x2="161.6" y2="239.647" gradientUnits="userSpaceOnUse">
<stop stop-color="#0DA88C"/>
<stop offset="1" stop-color="#0DA88C" stop-opacity="0"/>
</linearGradient>
<linearGradient id="paint3_linear_385_96" x1="172.093" y1="343.634" x2="195.713" y2="577.606" gradientUnits="userSpaceOnUse">
<stop stop-color="#0DA88C"/>
<stop offset="1" stop-color="#0DA88C" stop-opacity="0"/>
</linearGradient>
<linearGradient id="paint4_linear_385_96" x1="476.093" y1="-31.7432" x2="499.713" y2="202.229" gradientUnits="userSpaceOnUse">
<stop stop-color="#0DA88C"/>
<stop offset="1" stop-color="#0DA88C" stop-opacity="0"/>
</linearGradient>
<linearGradient id="paint5_linear_385_96" x1="510.535" y1="309.467" x2="534.155" y2="543.44" gradientUnits="userSpaceOnUse">
<stop stop-color="#0DA88C"/>
<stop offset="1" stop-color="#0DA88C" stop-opacity="0"/>
</linearGradient>
<linearGradient id="paint6_linear_385_96" x1="811.616" y1="-62.3301" x2="835.235" y2="171.642" gradientUnits="userSpaceOnUse">
<stop stop-color="#0DA88C"/>
<stop offset="1" stop-color="#0DA88C" stop-opacity="0"/>
</linearGradient>
<linearGradient id="paint7_linear_385_96" x1="845.736" y1="275.631" x2="869.356" y2="509.603" gradientUnits="userSpaceOnUse">
<stop stop-color="#0DA88C"/>
<stop offset="1" stop-color="#0DA88C" stop-opacity="0"/>
</linearGradient>
<linearGradient id="paint8_linear_385_96" x1="1149.73" y1="-99.746" x2="1173.35" y2="134.227" gradientUnits="userSpaceOnUse">
<stop stop-color="#0DA88C"/>
<stop offset="1" stop-color="#0DA88C" stop-opacity="0"/>
</linearGradient>
<linearGradient id="paint9_linear_385_96" x1="1184.17" y1="241.462" x2="1207.79" y2="475.435" gradientUnits="userSpaceOnUse">
<stop stop-color="#0DA88C"/>
<stop offset="1" stop-color="#0DA88C" stop-opacity="0"/>
</linearGradient>
<linearGradient id="paint10_linear_385_96" x1="1488.51" y1="-130.664" x2="1512.13" y2="103.308" gradientUnits="userSpaceOnUse">
<stop stop-color="#0DA88C"/>
<stop offset="1" stop-color="#0DA88C" stop-opacity="0"/>
</linearGradient>
<linearGradient id="paint11_linear_385_96" x1="1522.62" y1="207.296" x2="1546.24" y2="441.269" gradientUnits="userSpaceOnUse">
<stop stop-color="#0DA88C"/>
<stop offset="1" stop-color="#0DA88C" stop-opacity="0"/>
</linearGradient>
</defs>
</svg>
