<svg width="559" height="874" viewBox="0 0 559 874" fill="none" xmlns="http://www.w3.org/2000/svg">
<mask id="path-1-outside-1_309_18411" maskUnits="userSpaceOnUse" x="0.944519" y="0.982178" width="558" height="774" fill="black">
<rect fill="white" x="0.944519" y="0.982178" width="558" height="874"/>
<path fill-rule="evenodd" clip-rule="evenodd" d="M373.443 95.7078C324.01 95.7078 283.792 55.0078 283.792 4.98218L320.257 4.98218C320.257 34.6591 344.116 58.8052 373.443 58.8052C373.695 58.8052 373.949 58.8017 374.202 58.7983H374.202H374.202H374.203H374.203H374.203L374.387 58.7958V95.6984C374.074 95.7078 373.757 95.7078 373.443 95.7078ZM275.594 6.05542C275.594 55.4888 234.894 95.7069 184.868 95.7069V59.2412C214.545 59.2412 238.691 35.3823 238.691 6.05541C238.691 5.80341 238.688 5.54885 238.684 5.29585L238.682 5.11168L275.584 5.11169C275.594 5.42494 275.594 5.74216 275.594 6.05542ZM283.792 194.634C283.792 144.608 324.01 103.908 373.443 103.908C373.756 103.908 374.074 103.908 374.387 103.917V140.82L374.203 140.818C373.95 140.814 373.695 140.811 373.443 140.811C344.116 140.811 320.257 164.957 320.257 194.634L283.792 194.634ZM275.594 193.557C275.594 144.124 234.894 103.906 184.868 103.906V140.372C214.545 140.372 238.691 164.23 238.691 193.557C238.691 193.809 238.688 194.064 238.684 194.317L238.682 194.501H275.584C275.594 194.188 275.594 193.871 275.594 193.557ZM115.522 442.535C160.422 442.535 202.02 428.296 235.935 404.149C225.371 460.335 175.393 503.01 115.523 503.01H75.6936L75.6936 585.985H115.523C160.422 585.985 202.02 571.747 235.935 547.599C225.37 603.785 175.393 646.46 115.523 646.46H4.94453L4.94452 729.435L115.522 729.435C161.43 729.435 203.886 714.55 238.208 689.408V869.984H321.047V689.408C355.369 714.55 397.825 729.435 443.732 729.435L554.31 729.435V646.46H443.732C383.862 646.46 333.884 603.785 323.32 547.599C357.235 571.746 398.833 585.985 443.732 585.985H483.561V503.01H443.732C383.862 503.01 333.884 460.335 323.32 404.149C357.235 428.296 398.833 442.535 443.732 442.535V359.56C379.712 359.56 327.004 310.764 321.701 248.831C321.874 245.422 321.961 241.991 321.961 238.54C321.961 237.828 321.961 237.106 321.939 236.393L321.284 236.393H237.971L237.315 236.393C237.294 237.106 237.294 237.828 237.294 238.54C237.294 241.991 237.381 245.422 237.553 248.831C232.251 310.764 179.543 359.56 115.522 359.56L115.522 442.535Z"/>
</mask>
<path d="M283.792 4.98218V0.982178L279.792 0.982177V4.98218H283.792ZM373.443 95.7078V99.7078V95.7078ZM320.257 4.98218H324.257V0.982183L320.257 0.982183V4.98218ZM373.443 58.8052V62.8052V58.8052ZM374.202 58.7983V54.7983H374.174L374.147 54.7986L374.202 58.7983ZM374.203 58.7983V62.7983H374.23L374.256 62.7979L374.203 58.7983ZM374.387 58.7958H378.387V54.7421L374.334 54.7962L374.387 58.7958ZM374.387 95.6984L374.506 99.6966L378.387 99.5807V95.6984H374.387ZM184.868 95.7069H180.868V99.7069H184.868V95.7069ZM184.868 59.2412V55.2412H180.868V59.2412H184.868ZM238.684 5.29585L234.685 5.3492L234.685 5.35036L238.684 5.29585ZM238.682 5.11168V1.11168L234.628 1.11168L234.682 5.16504L238.682 5.11168ZM275.584 5.11169L279.583 4.9925L279.467 1.11169L275.584 1.11169V5.11169ZM283.792 194.634H279.792V198.634H283.792V194.634ZM374.387 103.917H378.387V100.035L374.506 99.9192L374.387 103.917ZM374.387 140.82L374.334 144.82L378.387 144.874V140.82H374.387ZM374.203 140.818L374.148 144.817L374.149 144.817L374.203 140.818ZM320.257 194.634V198.634H324.257V194.634H320.257ZM184.868 103.906V99.9058H180.868V103.906H184.868ZM184.868 140.372H180.868V144.372H184.868V140.372ZM238.684 194.317L234.685 194.262L234.685 194.264L238.684 194.317ZM238.682 194.501L234.682 194.448L234.628 198.501H238.682V194.501ZM275.584 194.501V198.501H279.467L279.583 194.621L275.584 194.501ZM235.935 404.149L239.866 404.888L241.7 395.134L233.615 400.891L235.935 404.149ZM115.522 442.535H111.522V446.535H115.522V442.535ZM75.6936 503.01V499.01H71.6936V503.01H75.6936ZM75.6936 585.985H71.6936V589.985H75.6936V585.985ZM235.935 547.599L239.866 548.339L241.7 538.585L233.615 544.341L235.935 547.599ZM4.94453 646.46V642.46H0.944527L0.944526 646.46H4.94453ZM4.94452 729.435H0.944519L0.944519 733.435H4.94452L4.94452 729.435ZM115.522 729.435V725.435V729.435ZM238.208 689.408H242.208V681.519L235.844 686.181L238.208 689.408ZM238.208 869.984H234.208V873.984H238.208V869.984ZM321.047 869.984V873.984H325.047V869.984H321.047ZM321.047 689.408L323.411 686.181L317.047 681.519V689.408H321.047ZM443.732 729.435V725.435V729.435ZM554.31 729.435V733.435H558.31V729.435H554.31ZM554.31 646.46H558.31V642.46H554.31V646.46ZM323.32 547.599L325.64 544.341L317.555 538.584L319.389 548.338L323.32 547.599ZM483.561 585.985V589.985H487.561V585.985H483.561ZM483.561 503.01H487.561V499.01H483.561V503.01ZM323.32 404.149L325.64 400.891L317.555 395.134L319.389 404.888L323.32 404.149ZM443.732 442.535V446.535H447.732V442.535H443.732ZM443.732 359.56H447.732V355.56H443.732V359.56ZM321.701 248.831L317.706 248.629L317.693 248.901L317.716 249.172L321.701 248.831ZM321.939 236.393L325.938 236.273L325.822 232.393L321.94 232.393L321.939 236.393ZM321.284 236.393L321.284 232.393H321.284V236.393ZM237.971 236.393V232.393H237.971L237.971 236.393ZM237.315 236.393L237.315 232.393L233.433 232.393L233.317 236.273L237.315 236.393ZM237.553 248.831L241.539 249.172L241.562 248.901L241.548 248.629L237.553 248.831ZM115.522 359.56V355.56H111.522V359.56H115.522ZM279.792 4.98218C279.792 57.1719 321.756 99.7078 373.443 99.7078V91.7078C326.264 91.7078 287.792 52.8437 287.792 4.98218H279.792ZM320.257 0.982183L283.792 0.982178V8.98218L320.257 8.98218V0.982183ZM373.443 54.8052C346.37 54.8052 324.257 32.4951 324.257 4.98218H316.257C316.257 36.8232 341.862 62.8052 373.443 62.8052V54.8052ZM374.147 54.7986C373.89 54.8022 373.663 54.8052 373.443 54.8052V62.8052C373.727 62.8052 374.008 62.8013 374.256 62.7979L374.147 54.7986ZM374.202 54.7983H374.202V62.7983H374.202V54.7983ZM374.202 54.7983H374.202V62.7983H374.202V54.7983ZM374.203 54.7983H374.202V62.7983H374.203V54.7983ZM374.203 54.7983H374.203V62.7983H374.203V54.7983ZM374.203 54.7983H374.203V62.7983H374.203V54.7983ZM374.334 54.7962L374.15 54.7986L374.256 62.7979L374.44 62.7955L374.334 54.7962ZM378.387 95.6984V58.7958H370.387V95.6984H378.387ZM373.443 99.7078C373.746 99.7078 374.123 99.7081 374.506 99.6966L374.267 91.7002C374.024 91.7075 373.767 91.7078 373.443 91.7078V99.7078ZM184.868 99.7069C237.058 99.7069 279.594 57.7427 279.594 6.05542H271.594C271.594 53.2349 232.73 91.7069 184.868 91.7069V99.7069ZM180.868 59.2412V95.7069H188.868V59.2412H180.868ZM234.691 6.05541C234.691 33.1284 212.381 55.2412 184.868 55.2412V63.2412C216.709 63.2412 242.691 37.6363 242.691 6.05541H234.691ZM234.685 5.35036C234.688 5.60798 234.691 5.83524 234.691 6.05541H242.691C242.691 5.77159 242.687 5.48972 242.684 5.24133L234.685 5.35036ZM234.682 5.16504L234.685 5.3492L242.684 5.24249L242.682 5.05833L234.682 5.16504ZM275.584 1.11169L238.682 1.11168V9.11168L275.584 9.11169V1.11169ZM279.594 6.05542C279.594 5.75246 279.594 5.37538 279.583 4.9925L271.586 5.23088C271.594 5.4745 271.594 5.73186 271.594 6.05542H279.594ZM373.443 99.908C321.756 99.908 279.792 142.444 279.792 194.634H287.792C287.792 146.772 326.264 107.908 373.443 107.908V99.908ZM374.506 99.9192C374.123 99.9077 373.746 99.908 373.443 99.908V107.908C373.767 107.908 374.024 107.908 374.267 107.916L374.506 99.9192ZM378.387 140.82V103.917H370.387V140.82H378.387ZM374.149 144.817L374.334 144.82L374.44 136.82L374.256 136.818L374.149 144.817ZM373.443 144.811C373.663 144.811 373.891 144.814 374.148 144.817L374.257 136.818C374.009 136.814 373.727 136.811 373.443 136.811V144.811ZM324.257 194.634C324.257 167.121 346.37 144.811 373.443 144.811V136.811C341.862 136.811 316.257 162.793 316.257 194.634H324.257ZM283.792 198.634L320.257 198.634V190.634L283.792 190.634V198.634ZM184.868 107.906C232.73 107.906 271.594 146.378 271.594 193.557H279.594C279.594 141.87 237.058 99.9058 184.868 99.9058V107.906ZM188.868 140.372V103.906H180.868V140.372H188.868ZM242.691 193.557C242.691 161.976 216.709 136.372 184.868 136.372V144.372C212.381 144.372 234.691 166.484 234.691 193.557H242.691ZM242.684 194.371C242.687 194.123 242.691 193.841 242.691 193.557H234.691C234.691 193.777 234.688 194.005 234.685 194.262L242.684 194.371ZM242.682 194.554L242.684 194.37L234.685 194.264L234.682 194.448L242.682 194.554ZM275.584 190.501H238.682V198.501H275.584V190.501ZM271.594 193.557C271.594 193.881 271.594 194.138 271.586 194.381L279.583 194.621C279.594 194.238 279.594 193.86 279.594 193.557H271.594ZM233.615 400.891C200.356 424.571 159.564 438.535 115.522 438.535V446.535C161.28 446.535 203.684 432.022 238.255 407.408L233.615 400.891ZM115.523 507.01C177.322 507.01 228.947 462.96 239.866 404.888L232.004 403.41C221.794 457.709 173.464 499.01 115.523 499.01V507.01ZM75.6936 507.01H115.523V499.01H75.6936V507.01ZM79.6936 585.985L79.6936 503.01H71.6936L71.6936 585.985H79.6936ZM115.523 581.985H75.6936V589.985H115.523V581.985ZM233.615 544.341C200.355 568.021 159.564 581.985 115.523 581.985V589.985C161.28 589.985 203.684 575.472 238.255 550.858L233.615 544.341ZM115.523 650.46C177.322 650.46 228.947 606.41 239.866 548.339L232.003 546.86C221.794 601.159 173.464 642.46 115.523 642.46V650.46ZM4.94453 650.46H115.523V642.46H4.94453V650.46ZM8.94452 729.435L8.94453 646.46H0.944526L0.944519 729.435H8.94452ZM115.522 725.435L4.94452 725.435L4.94452 733.435L115.522 733.435V725.435ZM235.844 686.181C202.186 710.837 160.553 725.435 115.522 725.435V733.435C162.307 733.435 205.586 718.263 240.571 692.634L235.844 686.181ZM242.208 869.984V689.408H234.208V869.984H242.208ZM321.047 865.984H238.208V873.984H321.047V865.984ZM317.047 689.408V869.984H325.047V689.408H317.047ZM443.732 725.435C398.702 725.435 357.069 710.837 323.411 686.181L318.683 692.635C353.668 718.263 396.948 733.435 443.732 733.435V725.435ZM554.31 725.435L443.732 725.435V733.435L554.31 733.435V725.435ZM550.31 646.46V729.435H558.31V646.46H550.31ZM443.732 650.46H554.31V642.46H443.732V650.46ZM319.389 548.338C330.308 606.41 381.933 650.46 443.732 650.46V642.46C385.791 642.46 337.461 601.159 327.251 546.86L319.389 548.338ZM443.732 581.985C399.691 581.985 358.899 568.021 325.64 544.341L321 550.858C355.571 575.472 397.975 589.985 443.732 589.985V581.985ZM483.561 581.985H443.732V589.985H483.561V581.985ZM479.561 503.01V585.985H487.561V503.01H479.561ZM443.732 507.01H483.561V499.01H443.732V507.01ZM319.389 404.888C330.308 462.96 381.933 507.01 443.732 507.01V499.01C385.791 499.01 337.461 457.71 327.251 403.41L319.389 404.888ZM443.732 438.535C399.691 438.535 358.899 424.571 325.64 400.891L321 407.408C355.571 432.022 397.975 446.535 443.732 446.535V438.535ZM439.732 359.56V442.535H447.732V359.56H439.732ZM317.716 249.172C323.197 313.194 377.655 363.56 443.732 363.56V355.56C381.769 355.56 330.81 308.333 325.687 248.49L317.716 249.172ZM317.961 238.54C317.961 241.924 317.875 245.287 317.706 248.629L325.696 249.033C325.872 245.557 325.961 242.058 325.961 238.54H317.961ZM317.941 236.512C317.96 237.155 317.961 237.817 317.961 238.54H325.961C325.961 237.838 325.961 237.056 325.938 236.273L317.941 236.512ZM321.284 240.393L321.939 240.393L321.94 232.393L321.284 232.393L321.284 240.393ZM237.971 240.393H321.284V232.393H237.971V240.393ZM237.315 240.393L237.971 240.393L237.971 232.393L237.315 232.393L237.315 240.393ZM241.294 238.54C241.294 237.817 241.294 237.155 241.314 236.512L233.317 236.273C233.294 237.056 233.294 237.838 233.294 238.54H241.294ZM241.548 248.629C241.379 245.287 241.294 241.924 241.294 238.54H233.294C233.294 242.058 233.383 245.557 233.559 249.033L241.548 248.629ZM115.522 363.56C181.599 363.56 236.058 313.194 241.539 249.172L233.568 248.49C228.445 308.333 177.486 355.56 115.522 355.56V363.56ZM119.522 442.535L119.522 359.56H111.522L111.522 442.535H119.522Z" fill="#FCC800" mask="url(#path-1-outside-1_309_18411)"/>
</svg>
