<svg width="97" height="98" viewBox="0 0 97 98" fill="none" xmlns="http://www.w3.org/2000/svg">
<circle cx="50.5" cy="46.5" r="46.5" fill="#FCC800"/>
<path d="M9.87758 75.1925C10.1379 76.3235 10.6911 77.3661 11.4816 78.2158C12.2721 79.0655 13.2721 79.6925 14.3813 80.0338L15.0563 83H15.0001V90.5H75.0001V83H25.0613C25.1106 82.6535 25.1017 82.3011 25.0351 81.9575L24.3001 78.7212L63.1388 69.8862L63.8738 73.1225C64.0696 73.9811 64.5983 74.7268 65.3436 75.1958C66.089 75.6648 66.9901 75.8187 67.8488 75.6238L71.0851 74.885C71.5105 74.7885 71.9126 74.6091 72.2686 74.357C72.6246 74.1049 72.9274 73.7852 73.1597 73.416C73.392 73.0468 73.5493 72.6355 73.6225 72.2055C73.6957 71.7755 73.6834 71.3352 73.5863 70.91L72.6451 66.7738C74.3176 65.2138 75.1576 62.8512 74.6138 60.4625L72.4013 50.75C72.1329 49.5799 71.5503 48.5051 70.7164 47.6415C69.8825 46.7779 68.8288 46.158 67.6688 45.8488L59.9851 33.1813C58.852 31.3201 57.1631 29.8617 55.1567 29.0119C53.1503 28.1621 50.9277 27.9638 48.8026 28.445L19.2976 35.1575C17.1701 35.6394 15.2485 36.7791 13.8053 38.4148C12.3621 40.0505 11.4707 42.0991 11.2576 44.27L9.80633 59.015C8.89608 59.7966 8.2161 60.8115 7.83948 61.9506C7.46286 63.0897 7.40386 64.3099 7.66883 65.48L9.87758 75.1925ZM21.2026 72.6125C20.5651 72.7578 19.9052 72.7761 19.2607 72.6663C18.6161 72.5566 17.9995 72.321 17.446 71.9729C16.8925 71.6249 16.413 71.1712 16.0348 70.6379C15.6566 70.1045 15.3872 69.5019 15.242 68.8644C15.0967 68.2269 15.0784 67.567 15.1881 66.9225C15.2979 66.2779 15.5335 65.6613 15.8815 65.1078C16.2296 64.5543 16.6832 64.0748 17.2166 63.6966C17.75 63.3184 18.3526 63.049 18.9901 62.9037C20.2775 62.6104 21.6288 62.8404 22.7466 63.5433C23.8645 64.2462 24.6573 65.3644 24.9507 66.6519C25.2441 67.9393 25.014 69.2906 24.3111 70.4085C23.6082 71.5263 22.49 72.3191 21.2026 72.6125ZM63.2851 63.0425C62.6367 63.2207 61.9589 63.2658 61.2926 63.175C60.6264 63.0842 59.9854 62.8594 59.4083 62.5142C58.8313 62.1689 58.3301 61.7104 57.9351 61.1662C57.54 60.6221 57.2593 60.0035 57.1098 59.3479C56.9603 58.6923 56.9451 58.0132 57.0651 57.3516C57.1852 56.69 57.4379 56.0595 57.8082 55.4982C58.1785 54.9369 58.6587 54.4564 59.2197 54.0857C59.7807 53.715 60.411 53.4618 61.0726 53.3412C62.3346 53.1113 63.6367 53.3773 64.7075 54.0837C65.7783 54.7902 66.5352 55.8826 66.8204 57.1333C67.1057 58.384 66.8973 59.6965 66.2387 60.7974C65.58 61.8983 64.522 62.7025 63.2851 63.0425ZM20.9588 42.47L50.4676 35.7537C51.0589 35.6202 51.6772 35.6753 52.2355 35.9114C52.7938 36.1475 53.264 36.5527 53.5801 37.07L59.5238 46.8687L57.4013 47.3525L19.7288 55.9287L17.5988 56.4125L18.7201 45.005C18.7804 44.4011 19.0291 43.8315 19.4308 43.3766C19.8325 42.9217 20.367 42.6046 20.9588 42.47ZM69.0188 23L63.7501 15.5L61.8751 26.75L71.2501 41.75L82.5001 45.5L75.0001 35.9788L82.5001 32.48L75.0001 28.9812L82.5001 15.5L69.0188 23Z" fill="black"/>
</svg>
