<svg width="104" height="103" viewBox="0 0 104 103" fill="none" xmlns="http://www.w3.org/2000/svg">
<circle cx="57.1562" cy="46.5" r="46.5" fill="#F9951E"/>
<path d="M11.4993 86.1049V91C11.4993 92.0167 11.9032 92.9917 12.6221 93.7106C13.341 94.4295 14.316 94.8334 15.3327 94.8334H19.166C20.1827 94.8334 21.1577 94.4295 21.8766 93.7106C22.5955 92.9917 22.9993 92.0167 22.9993 91V87.1667H68.9993V91C68.9993 92.0167 69.4032 92.9917 70.1221 93.7106C70.841 94.4295 71.816 94.8334 72.8327 94.8334H76.666C77.6827 94.8334 78.6577 94.4295 79.3766 93.7106C80.0955 92.9917 80.4993 92.0167 80.4993 91V86.1049C81.6623 85.4379 82.629 84.4762 83.302 83.3167C83.975 82.1571 84.3305 80.8407 84.3327 79.5V68C84.3327 64.8145 82.3892 62.089 79.6253 60.9275L74.3813 45.1955C73.6206 42.9051 72.1574 40.9126 70.1996 39.5012C68.2418 38.0898 65.889 37.3312 63.4755 37.3334H28.5232C26.1097 37.3312 23.7569 38.0898 21.7991 39.5012C19.8413 40.9126 18.3781 42.9051 17.6173 45.1955L12.3733 60.9275C10.9792 61.5115 9.78858 62.4943 8.95108 63.7526C8.11358 65.0108 7.66652 66.4885 7.66602 68V79.5C7.66602 82.329 9.21468 84.7747 11.4993 86.1049ZM21.0827 79.5C20.3273 79.4998 19.5794 79.3508 18.8817 79.0615C18.1839 78.7722 17.55 78.3483 17.016 77.814C15.9377 76.7349 15.3322 75.2717 15.3327 73.7462C15.3332 72.2207 15.9397 70.7579 17.0187 69.6796C18.0978 68.6012 19.561 67.9957 21.0865 67.9962C22.612 67.9967 24.0748 68.6032 25.1532 69.6823C26.2315 70.7613 26.837 72.2245 26.8365 73.75C26.836 75.2755 26.2295 76.7384 25.1505 77.8167C24.0714 78.895 22.6082 79.5006 21.0827 79.5ZM70.916 79.5C69.3905 79.4995 67.9277 78.893 66.8494 77.814C65.771 76.7349 65.1655 75.2717 65.166 73.7462C65.1665 72.2207 65.773 70.7579 66.8521 69.6796C67.9311 68.6012 69.3943 67.9957 70.9198 67.9962C72.4454 67.9967 73.9082 68.6032 74.9865 69.6823C76.0648 70.7613 76.6704 72.2245 76.6698 73.75C76.6693 75.2755 76.0629 76.7384 74.9838 77.8167C73.9047 78.895 72.4415 79.5006 70.916 79.5ZM28.5232 45H63.4717C64.2765 44.9999 65.0611 45.253 65.714 45.7236C66.3669 46.1942 66.8552 46.8584 67.1095 47.622L71.3492 60.3334H20.6495L24.8853 47.622C25.4105 46.0542 26.8748 45 28.5232 45Z" fill="black"/>
<path d="M84.3327 38.8206V30.7361L47.2107 18.3621C46.3903 18.0875 45.5009 18.0997 44.6883 18.3966L7.66602 31.8593V40.0166L46.0569 26.0556L84.3327 38.8206Z" fill="black"/>
</svg>
